<svg id="dtlogo" version="1.0" xmlns="http://www.w3.org/2000/svg"
 width="700.000000pt" height="700.000000pt" viewBox="0 0 700.000000 700.000000"
 preserveAspectRatio="xMidYMid meet" fill="white" opacity=".5">

<g transform="translate(0.000000,700.000000) scale(0.100000,-0.100000)">
<path d="M3243 6517 c-120 -89 -301 -224 -403 -300 -204 -151 -830 -617 -870
-647 -14 -10 -275 -204 -580 -431 -305 -227 -661 -491 -790 -587 -129 -96
-270 -200 -312 -231 -61 -44 -75 -60 -71 -76 5 -21 86 -281 158 -505 24 -74
69 -216 100 -315 31 -99 77 -241 100 -315 24 -74 71 -220 104 -325 57 -183
122 -388 273 -860 38 -121 82 -260 98 -310 16 -49 61 -191 100 -315 40 -124
82 -259 95 -300 32 -104 78 -248 135 -425 27 -82 54 -169 61 -193 l12 -42
2016 2 2015 3 37 115 c21 63 70 216 109 340 74 234 77 242 185 585 37 116 75
235 85 265 10 30 25 78 33 105 8 28 79 250 157 495 78 245 155 488 171 540 17
52 77 241 134 420 124 389 290 912 315 993 l18 59 -281 209 c-155 115 -289
215 -297 222 -8 7 -58 43 -110 82 -52 38 -207 153 -345 255 -311 232 -662 493
-953 709 -123 91 -310 230 -415 308 -106 79 -201 149 -212 157 -11 8 -99 74
-195 146 -96 71 -184 137 -195 145 -11 7 -71 52 -134 99 -63 48 -118 86 -122
86 -4 0 -106 -73 -226 -163z m249 -55 c2 -4 152 -117 333 -252 182 -135 335
-248 340 -253 6 -4 39 -29 75 -55 36 -25 67 -49 70 -52 3 -3 48 -37 100 -75
52 -39 102 -75 110 -82 8 -6 148 -110 310 -230 387 -288 839 -624 916 -682 34
-25 72 -54 85 -63 53 -38 646 -479 673 -500 l29 -23 -53 -165 c-54 -173 -105
-331 -164 -515 -19 -60 -78 -247 -131 -415 -122 -384 -214 -674 -303 -955 -94
-294 -252 -793 -367 -1155 -51 -162 -106 -335 -122 -385 l-29 -90 -1894 -2
-1895 -3 -43 138 c-24 75 -61 191 -82 257 -21 66 -61 194 -90 285 -81 257
-130 411 -145 455 -7 22 -37 114 -65 205 -28 91 -71 226 -95 300 -24 74 -71
223 -105 330 -34 107 -79 249 -100 315 -52 165 -150 472 -221 700 -33 105 -66
208 -74 230 -7 22 -41 128 -75 235 -33 107 -65 204 -69 215 -9 21 -15 16 489
390 175 129 857 636 1030 765 14 10 151 112 305 227 154 114 374 278 488 363
603 448 742 550 753 550 7 0 14 -3 16 -8z"/>
<path d="M3384 6012 c-44 -32 -173 -127 -289 -212 -115 -84 -257 -188 -315
-231 -58 -42 -145 -106 -195 -142 -49 -36 -106 -78 -125 -92 -30 -23 -145
-107 -640 -469 -47 -34 -101 -73 -120 -86 -19 -13 -37 -27 -40 -30 -3 -3 -39
-30 -80 -60 -41 -29 -79 -58 -85 -62 -5 -5 -93 -69 -195 -143 -490 -357 -563
-411 -567 -422 -5 -12 0 -31 77 -268 183 -572 233 -725 245 -760 7 -22 41
-128 75 -235 34 -107 75 -233 90 -280 16 -47 61 -186 100 -310 40 -124 74
-227 76 -229 6 -7 504 -7 514 -1 5 3 0 39 -11 80 -22 83 -30 221 -16 290 5 25
44 155 87 290 43 135 108 338 145 452 58 182 80 233 120 274 25 26 143 129
330 289 77 65 143 124 147 129 10 14 4 22 -107 141 -55 59 -106 116 -113 127
-18 24 -12 44 44 164 25 55 61 131 79 169 292 624 331 692 460 799 97 79 244
150 356 171 82 15 292 -71 412 -170 117 -97 156 -156 270 -411 197 -439 296
-663 297 -675 5 -31 -2 -46 -32 -80 -18 -19 -64 -70 -103 -114 -38 -44 -74
-83 -79 -86 -12 -9 31 -51 234 -224 96 -82 207 -181 245 -219 68 -69 71 -74
104 -181 19 -60 47 -148 62 -195 222 -687 213 -654 206 -789 -5 -104 -9 -126
-31 -190 l-15 -41 37 -1 c52 0 430 0 470 0 24 1 35 7 42 23 8 20 135 413 222
688 17 52 41 127 53 165 13 39 65 198 115 355 83 259 155 481 230 710 45 139
46 146 13 167 -15 10 -35 24 -43 30 -18 15 -271 201 -429 316 -62 45 -144 105
-181 132 -279 205 -428 314 -459 336 -20 14 -146 106 -281 205 -266 196 -922
676 -1035 758 -38 28 -74 54 -80 59 -40 33 -200 147 -206 147 -3 0 -42 -26
-85 -58z"/>
<path d="M3385 5208 c-104 -35 -212 -98 -279 -164 -33 -34 -126 -163 -126
-177 0 -3 -34 -76 -76 -163 -101 -211 -124 -264 -116 -264 4 0 53 9 109 19
128 25 185 34 283 46 30 4 58 9 61 11 3 2 52 6 110 10 57 4 105 8 107 9 1 1
-11 17 -28 35 -35 38 -37 51 -10 75 20 18 22 18 88 -48 60 -59 72 -67 117 -72
28 -4 58 -9 68 -11 9 -3 17 -3 17 -1 0 3 -70 74 -156 159 -146 144 -156 156
-145 177 8 13 20 21 31 19 10 -2 104 -87 208 -189 174 -170 194 -187 234 -193
23 -4 54 -10 68 -13 17 -4 -20 39 -125 141 -300 294 -445 439 -445 446 0 4 9
15 20 25 24 22 9 34 235 -187 452 -443 479 -467 490 -456 3 3 -11 40 -31 83
-34 73 -49 90 -251 289 -295 289 -416 406 -423 405 -3 0 -18 -5 -35 -11z"/>
<path d="M3758 4999 c112 -111 205 -199 207 -198 7 8 -66 142 -102 187 -47 60
-117 118 -190 159 -133 74 -124 59 85 -148z"/>
<path d="M2998 4342 c-21 -2 -39 -7 -39 -13 -1 -5 -2 -15 -3 -21 -4 -31 60
-237 115 -368 35 -85 45 -99 92 -134 80 -59 156 -93 244 -110 76 -14 85 -14
162 4 139 33 268 113 297 183 34 85 115 343 121 387 9 78 33 75 -491 75 -253
0 -478 -1 -498 -3z m519 -313 l11 -26 -49 1 -49 1 1 100 0 100 37 -75 c21 -41
42 -87 49 -101z"/>
<path d="M3252 2950 c-690 -4 -794 -7 -802 -20 -9 -14 -8 -100 5 -455 3 -82 7
-208 10 -280 2 -71 7 -222 11 -335 4 -113 7 -227 8 -255 l2 -50 971 -3 971 -2
2 107 c1 60 3 142 5 183 1 41 6 170 9 285 4 116 9 255 11 310 16 394 16 492 2
503 -19 16 -236 18 -1205 12z m369 -268 c169 -81 257 -254 225 -442 -9 -49
-51 -144 -73 -162 -11 -9 -11 -14 4 -30 9 -11 17 -35 17 -55 0 -52 -30 -73
-105 -73 -57 0 -59 -1 -60 -27 -2 -46 -9 -96 -14 -101 -2 -2 -75 -5 -161 -6
-180 -1 -169 -8 -173 106 -1 26 -3 26 -63 27 -40 0 -66 5 -76 15 -19 19 -24
89 -8 112 11 15 9 24 -16 64 -135 217 -24 513 220 591 88 28 201 20 283 -19z"/>
<path d="M3187 2304 c-10 -11 -8 -67 3 -100 21 -59 111 -91 170 -61 31 16 70
73 70 103 0 21 -5 24 -34 24 -34 0 -155 23 -187 35 -8 3 -18 2 -22 -1z"/>
<path d="M3655 2288 c-38 -10 -91 -19 -117 -20 -41 -2 -48 -5 -48 -23 0 -27
34 -80 64 -100 56 -37 141 -13 173 48 16 32 20 94 7 106 -5 5 -40 0 -79 -11z"/>
<path d="M3393 2077 c-19 -25 -31 -85 -20 -96 26 -26 52 -6 62 51 6 30 4 38
-13 47 -15 8 -22 7 -29 -2z"/>
<path d="M3486 2075 c-23 -24 -1 -105 28 -105 26 0 36 24 26 62 -14 48 -33 64
-54 43z"/>
<path d="M1434 1869 c-2 -3 3 -24 11 -45 7 -22 34 -102 59 -179 24 -77 85
-266 135 -420 49 -154 99 -310 111 -347 l22 -68 1697 0 1697 0 82 253 c45 138
109 338 142 442 34 105 75 230 91 278 16 49 29 90 29 90 0 2 -538 0 -556 -2
-6 -1 -20 -18 -31 -38 -32 -57 -154 -184 -241 -252 -42 -33 -84 -67 -93 -74
-12 -11 -15 -32 -14 -93 2 -116 -13 -153 -77 -178 -48 -18 -2049 -17 -2094 2
-51 22 -67 61 -68 176 l-2 100 -54 38 c-76 52 -219 194 -266 264 l-39 59 -269
0 c-147 0 -270 -3 -272 -6z"/>
<path d="M2445 1431 c-3 -2 -5 -24 -5 -48 l0 -43 1015 0 1015 0 0 48 0 48
-1010 0 c-556 0 -1013 -2 -1015 -5z"/>
</g>
</svg>